<svg width="108" height="24" viewBox="0 0 108 24" fill="none" xmlns="http://www.w3.org/2000/svg">
<mask id="mask0_6318_76966" style="mask-type:luminance" maskUnits="userSpaceOnUse" x="0" y="0" width="108" height="24">
<path d="M0.00012948 24H107.294L107.058 0H0V24H0.00012948Z" fill="white"/>
</mask>
<g mask="url(#mask0_6318_76966)">
<g filter="url(#filter0_d_6318_76966)">
<path d="M4.57374 11.1029C4.57322 13.1985 5.12002 15.2581 6.16012 17.0763C7.19984 18.8942 8.6965 20.4077 10.5011 21.4658L10.6243 21.5348C12.4265 22.5657 14.4661 23.1064 16.5411 23.1038C14.9062 23.7764 13.1431 24.0779 11.3785 23.9864C9.6136 23.8949 7.89101 23.4128 6.33402 22.5745C4.77728 21.7362 3.42474 20.5626 2.37375 19.1382C1.32303 17.7136 0.599756 16.0734 0.255858 14.3354C-0.0877807 12.5974 -0.0433692 10.8047 0.385855 9.08589C0.81521 7.36726 1.61863 5.7649 2.73876 4.3943C3.85876 3.02409 5.26762 1.91925 6.8641 1.15947C8.46046 0.399552 10.2049 0.00376324 11.9719 0C14.1295 0.895392 15.9786 2.40328 17.2923 4.33876C18.606 6.2741 19.3268 8.55216 19.366 10.8928C19.3024 8.9521 18.4822 7.11395 17.0817 5.77281C15.6813 4.43167 13.8122 3.69446 11.8756 3.7199C9.93924 3.74494 8.09002 4.53068 6.72465 5.9079C5.35955 7.28511 4.58734 9.14416 4.574 11.0859V11.1027L4.57374 11.1029Z" fill="white"/>
<path d="M23.9398 12.001C23.9411 14.378 23.2389 16.7019 21.9217 18.6783C20.6049 20.6549 18.7324 22.1948 16.5418 23.1036C14.4668 23.1062 12.4272 22.5654 10.625 21.5346C11.0453 21.7622 11.5162 21.8795 11.9941 21.8758C12.4716 21.8723 12.941 21.7475 13.3578 21.5135L13.4372 21.4655C15.2162 20.424 16.6968 18.9395 17.7355 17.1561C18.7744 15.3723 19.3361 13.35 19.3666 11.2848C19.3666 11.2575 19.3666 11.23 19.3666 11.2029C19.3673 11.1847 19.3673 11.1666 19.3666 11.1485V11.1026C19.3666 11.0647 19.3666 11.0293 19.3666 10.9935C19.3666 10.958 19.3666 10.9391 19.3666 10.9096C19.3306 8.56617 18.6113 6.28422 17.2973 4.34576C15.9834 2.40692 14.1325 0.89643 11.9725 0C15.1467 0.000519068 18.1906 1.2651 20.4348 3.51577C22.679 5.76645 23.9398 8.81857 23.9398 12.0011V12.001Z" fill="#79D0F2"/>
<path d="M11.9696 15.5691C14.4942 15.5691 16.541 13.5172 16.541 10.9858C16.541 8.45448 14.4942 6.40234 11.9696 6.40234C9.44499 6.40234 7.39844 8.45448 7.39844 10.9858C7.39844 13.5172 9.44499 15.5691 11.9696 15.5691Z" fill="#F2CB05"/>
<path d="M40.75 13.6459C40.75 16.5901 43.0756 18.9618 45.9316 18.9618C48.0941 18.9618 49.9912 17.6737 50.7869 15.7722L47.9513 15.0976C47.5841 15.7722 46.8293 16.1607 45.9316 16.1607C44.7075 16.1607 43.8712 15.3429 43.6876 14.1979H51.1745C51.1949 13.9934 51.2153 13.789 51.2153 13.5846C51.195 10.6813 48.8285 8.33008 45.9316 8.33008C43.0756 8.33008 40.75 10.7018 40.75 13.646V13.6459ZM45.9316 10.9471C46.972 10.9471 47.7677 11.5605 48.1144 12.4805H43.8304C44.1567 11.5605 44.9116 10.9471 45.9316 10.9471Z" fill="white"/>
<path d="M52.0195 11.6422C52.0195 14.382 54.59 14.5864 56.3444 14.8727C57.2216 15.0158 57.9152 15.1794 57.9152 15.711C57.8948 16.038 57.6704 16.5696 56.3649 16.5696C55.4469 16.5901 54.7736 16.3039 54.7736 15.6087H52.0604C52.0604 18.103 54.1412 18.9618 56.3649 18.9618C58.5273 18.9618 60.9549 18.1643 60.9752 15.6496C60.9549 13.2575 58.7721 12.8689 57.0585 12.5828C55.957 12.3988 55.0592 12.2558 55.0592 11.6628C55.0592 11.2744 55.4264 10.9676 56.4261 10.9676C57.4054 10.9676 57.7521 11.2744 57.7521 11.8059H60.4857C60.4857 10.0067 59.2005 8.33008 56.2016 8.33008C53.9168 8.33008 52.0195 9.29113 52.0195 11.6422Z" fill="white"/>
<path d="M61.6953 11.4988H62.9194V15.5674C62.9194 17.4894 63.9802 18.7569 65.551 18.7569H68.5294V15.7924H67.1626C66.4077 15.7924 65.9182 15.2812 65.9182 14.5043V11.4989H68.5294V8.53427H65.9182V5.67188H62.9194V8.53427H61.6953V11.4989V11.4988Z" fill="white"/>
<path d="M73.4598 18.7572V13.6458H75.5202C78.6415 13.6458 80.6611 12.1532 80.6611 9.08643C80.6611 6.01964 78.6415 4.44531 75.5202 4.44531H70.4609V18.7572H73.4597H73.4598ZM75.4794 7.40984C77.0095 7.40984 77.6827 8.08463 77.6827 9.00467C77.6827 10.1292 77.0094 10.6811 75.4794 10.6811H73.4598V7.40984H75.4794Z" fill="white"/>
<path d="M80.7788 16.038C80.8807 17.6123 82.2884 18.9618 84.1652 18.9618C85.8992 18.9618 87.0008 18.2461 87.8575 17.4692V18.7572H90.836V12.4805C90.836 9.59764 88.9796 8.33008 85.7359 8.33008C84.2263 8.33008 82.3903 8.80035 81.3091 9.39326L82.0027 11.765C82.6351 11.4584 84.5528 11.1107 85.94 11.1721C86.9804 11.2334 87.776 11.5196 87.8169 12.1535L87.8372 12.3172L83.7775 12.6852C81.7579 12.8488 80.6563 14.4639 80.7788 16.0382V16.038ZM83.5531 15.6496C83.5531 15.1998 83.9611 14.8318 85.0219 14.6887L87.8575 14.3001V14.709C87.7964 15.2407 86.45 16.5288 84.8588 16.5288C84.002 16.5288 83.5531 16.1197 83.5531 15.6496Z" fill="white"/>
<path d="M91.1602 8.5332L95.8318 18.7559L93.9754 22.8449H97.0762L103.625 8.5332H100.524L97.4026 15.4028L94.2611 8.5332H91.1602Z" fill="white"/>
<path d="M32.9574 4.06445C36.7455 4.06445 39.2254 6.19055 39.2254 10.2733V19.1388H36.0812V10.5855C36.0812 8.05102 34.9508 6.84211 32.9471 6.84211C30.9439 6.84211 29.8367 8.05089 29.8367 10.5855V19.1388H26.6875V10.2733C26.6875 6.19055 29.1969 4.06445 32.9573 4.06445H32.9574Z" fill="white"/>
</g>
</g>
<defs>
<filter id="filter0_d_6318_76966" x="-3.97266" y="0" width="111.598" height="32.0024" filterUnits="userSpaceOnUse" color-interpolation-filters="sRGB">
<feFlood flood-opacity="0" result="BackgroundImageFix"/>
<feColorMatrix in="SourceAlpha" type="matrix" values="0 0 0 0 0 0 0 0 0 0 0 0 0 0 0 0 0 0 127 0" result="hardAlpha"/>
<feOffset dy="4"/>
<feGaussianBlur stdDeviation="2"/>
<feComposite in2="hardAlpha" operator="out"/>
<feColorMatrix type="matrix" values="0 0 0 0 0 0 0 0 0 0 0 0 0 0 0 0 0 0 0.25 0"/>
<feBlend mode="normal" in2="BackgroundImageFix" result="effect1_dropShadow_6318_76966"/>
<feBlend mode="normal" in="SourceGraphic" in2="effect1_dropShadow_6318_76966" result="shape"/>
</filter>
</defs>
</svg>
